# Blender v2.73 (sub 0) OBJ File: 'tile.blend'
# www.blender.org
mtllib tile_low.mtl
o Cube
v 0.175507 0.116251 -0.211452
v 0.175507 0.116251 0.211452
v 0.175507 -0.119121 0.211452
v 0.175507 -0.119121 -0.211452
v 0.163878 0.116251 0.226458
v -0.163878 0.116251 0.226458
v -0.163878 -0.119121 0.226458
v 0.163878 -0.119121 0.226458
v -0.175507 0.116251 0.211452
v -0.175507 0.116251 -0.211452
v -0.175507 -0.119121 -0.211452
v -0.175507 -0.119121 0.211452
v -0.163878 0.116251 -0.226458
v 0.163878 0.116251 -0.226458
v 0.163878 -0.119121 -0.226458
v -0.163878 -0.119121 -0.226458
v 0.163878 -0.126038 -0.211452
v 0.163878 -0.126038 0.211452
v -0.163878 -0.126038 0.211452
v -0.163878 -0.126038 -0.211452
v -0.158355 0.129458 -0.204326
v -0.158355 0.129458 0.204326
v 0.158355 0.129458 0.204326
v 0.158355 0.129458 -0.204326
v 0.175507 -0.061479 0.211452
v 0.175507 -0.061479 -0.211452
v -0.163878 -0.061479 0.226458
v 0.163878 -0.061479 0.226458
v -0.175507 -0.061479 -0.211452
v -0.175507 -0.061479 0.211452
v 0.163878 -0.061479 -0.226458
v -0.163878 -0.061479 -0.226458
vt 0.989235 0.989235
vt 0.900000 -0.000000
vt 0.900000 1.000000
vt 0.000000 1.000000
vt 0.000000 0.000000
vt 0.016646 0.018599
vn 1.000000 0.000000 0.000000
vn -0.000000 0.000000 1.000000
vn -1.000000 0.000000 -0.000000
vn 0.000000 0.000000 -1.000000
vn 0.000000 -1.000000 0.000000
vn 0.000000 1.000000 -0.000000
vn -0.468900 0.805000 -0.363400
vn -0.468900 0.805000 0.363400
vn 0.468900 0.805000 0.363400
vn 0.468900 0.805000 -0.363400
vn 0.000000 0.858700 -0.512400
vn -0.610100 0.792300 -0.000000
vn -0.000000 0.858700 0.512400
vn 0.610100 0.792300 0.000000
vn -0.790400 0.000000 -0.612600
vn -0.790400 0.000000 0.612600
vn 0.790400 0.000000 0.612600
vn 0.790400 0.000000 -0.612600
vn -0.475200 -0.799100 -0.368300
vn -0.511200 -0.859500 -0.000000
vn -0.475200 -0.799100 0.368300
vn -0.000000 -0.908200 0.418600
vn 0.475200 -0.799100 0.368300
vn 0.511200 -0.859500 0.000000
vn 0.475200 -0.799100 -0.368300
vn 0.000000 -0.908200 -0.418600
usemtl None
s off
f 26/1/1 25/1/1 3/1/1 4/1/1
f 28/1/2 27/1/2 7/1/2 8/1/2
f 30/1/3 29/1/3 11/1/3 12/1/3
f 32/1/4 31/1/4 15/1/4 16/1/4
f 17/1/5 18/1/5 19/1/5 20/1/5
f 21/2/6 22/3/6 23/4/6 24/5/6
f 21/6/7 13/6/7 10/6/7
f 22/6/8 9/6/8 6/6/8
f 23/6/9 5/6/9 2/6/9
f 24/6/10 1/6/10 14/6/10
f 14/6/11 13/6/11 21/6/11 24/6/11
f 10/6/12 9/6/12 22/6/12 21/6/12
f 6/6/13 5/6/13 23/6/13 22/6/13
f 2/6/14 1/6/14 24/6/14 23/6/14
f 29/6/15 10/6/15 13/6/15 32/6/15
f 27/6/16 6/6/16 9/6/16 30/6/16
f 25/6/17 2/6/17 5/6/17 28/6/17
f 26/1/18 4/1/18 15/1/18 31/1/18
f 16/1/19 20/1/19 11/1/19
f 12/1/20 11/1/20 20/1/20 19/1/20
f 12/1/21 19/1/21 7/1/21
f 8/1/22 7/1/22 19/1/22 18/1/22
f 8/1/23 18/1/23 3/1/23
f 4/1/24 3/1/24 18/1/24 17/1/24
f 15/1/25 4/1/25 17/1/25
f 16/1/26 15/1/26 17/1/26 20/1/26
f 13/6/4 14/6/4 31/6/4 32/6/4
f 9/6/3 10/6/3 29/6/3 30/6/3
f 11/1/15 29/1/15 32/1/15 16/1/15
f 5/6/2 6/6/2 27/6/2 28/6/2
f 7/1/16 27/1/16 30/1/16 12/1/16
f 1/6/18 26/6/18 31/6/18 14/6/18
f 1/6/1 2/6/1 25/6/1 26/6/1
f 3/1/17 25/1/17 28/1/17 8/1/17
