<?xml version="1.0" encoding="UTF-8" standalone="no"?>
<!-- Created with Inkscape (http://www.inkscape.org/) -->

<svg
   xmlns:dc="http://purl.org/dc/elements/1.1/"
   xmlns:cc="http://creativecommons.org/ns#"
   xmlns:rdf="http://www.w3.org/1999/02/22-rdf-syntax-ns#"
   xmlns:svg="http://www.w3.org/2000/svg"
   xmlns="http://www.w3.org/2000/svg"
   xmlns:xlink="http://www.w3.org/1999/xlink"
   xmlns:sodipodi="http://sodipodi.sourceforge.net/DTD/sodipodi-0.dtd"
   xmlns:inkscape="http://www.inkscape.org/namespaces/inkscape"
   width="210mm"
   height="297mm"
   viewBox="0 0 744.09448819 1052.3622047"
   id="svg4084"
   version="1.1"
   inkscape:version="0.91 r13725"
   inkscape:export-filename="C:\Users\Fluffy\Desktop\Button.png"
   inkscape:export-xdpi="180"
   inkscape:export-ydpi="180"
   sodipodi:docname="MenuButton.svg">
  <defs
     id="defs4086">
    <linearGradient
       inkscape:collect="always"
       id="linearGradient6537">
      <stop
         style="stop-color:#aa0000;stop-opacity:1;"
         offset="0"
         id="stop6539" />
      <stop
         style="stop-color:#ffd5d5;stop-opacity:1"
         offset="1"
         id="stop6541" />
    </linearGradient>
    <linearGradient
       id="linearGradient26287">
      <stop
         style="stop-color:#624229;stop-opacity:1;"
         offset="0"
         id="stop26289" />
      <stop
         style="stop-color:#e6b38b;stop-opacity:1;"
         offset="1"
         id="stop26291" />
    </linearGradient>
    <linearGradient
       inkscape:collect="always"
       xlink:href="#linearGradient6537"
       id="linearGradient6543"
       x1="240.30856"
       y1="502.2377"
       x2="240.2139"
       y2="476.88058"
       gradientUnits="userSpaceOnUse"
       gradientTransform="matrix(0.72761501,0,0,1,34.112266,0)" />
  </defs>
  <sodipodi:namedview
     id="base"
     pagecolor="#ffffff"
     bordercolor="#666666"
     borderopacity="1.0"
     inkscape:pageopacity="0.0"
     inkscape:pageshadow="2"
     inkscape:zoom="3.959798"
     inkscape:cx="196.66245"
     inkscape:cy="567.69432"
     inkscape:document-units="px"
     inkscape:current-layer="layer1"
     showgrid="false"
     inkscape:snap-others="true"
     inkscape:snap-nodes="true"
     inkscape:snap-global="true"
     inkscape:window-width="1920"
     inkscape:window-height="1017"
     inkscape:window-x="1912"
     inkscape:window-y="-8"
     inkscape:window-maximized="1" />
  <metadata
     id="metadata4089">
    <rdf:RDF>
      <cc:Work
         rdf:about="">
        <dc:format>image/svg+xml</dc:format>
        <dc:type
           rdf:resource="http://purl.org/dc/dcmitype/StillImage" />
        <dc:title />
      </cc:Work>
    </rdf:RDF>
  </metadata>
  <g
     inkscape:label="Layer 1"
     inkscape:groupmode="layer"
     id="layer1">
    <rect
       style="fill:url(#linearGradient6543);fill-opacity:1;fill-rule:nonzero;stroke:none"
       id="rect26263"
       width="165.46355"
       height="42.594856"
       x="125.54852"
       y="483.61887"
       inkscape:export-filename="C:\Users\seldon\Pictures\ConceptArt\buttonBorder.png"
       inkscape:export-xdpi="180"
       inkscape:export-ydpi="180" />
    <path
       style="font-style:normal;font-variant:normal;font-weight:normal;font-stretch:normal;font-size:65.77478027px;line-height:125%;font-family:'Border Corners';-inkscape-font-specification:'Border Corners';letter-spacing:0px;word-spacing:0px;fill:#804e26;fill-opacity:1;stroke:#2f1c00;stroke-width:0.11403406;stroke-opacity:1"
       id="path12077"
       d="m 280.0915,481.96942 0,1.35418 -143.76266,0 0,-1.28288 -4.3476,0 0,1.31141 -6.57124,0 0,6.62819 -1.33985,0 0,4.31903 1.33985,0 0,21.09237 -1.33985,0 0,4.31903 1.33985,0 0,6.62824 6.57124,0 0,1.31141 4.3476,0 0,-1.28288 143.76266,0 0,1.35413 4.31903,0 0,-1.35413 6.6282,0 0,-6.57124 1.3257,0 0,-4.34751 -1.29713,0 0,-4.81943 0,-16.38699 1.29713,0 0,-4.34756 -1.3257,0 0,-6.57119 -6.6282,0 0,-1.35418 z m 0.92657,0.89804 2.49447,0 0,0.45614 -2.49447,0 z m -148.13884,0.0713 2.55152,0 0,0.38485 -2.55152,0 z m -7.34094,0.49886 6.44295,0 0,0.78403 -5.67321,0 0,5.75868 -0.76974,0 z m 7.34094,0 2.55152,0 0,0.34213 -1.61067,0 -0.0424,0.19954 0,0.0998 0.0424,0.14259 -0.94085,0 z m 3.44961,0 143.76266,0 0,0.24236 -1.76754,0 -0.0286,0.1853 0,0.14254 0.0286,0.21383 -140.1849,0 0,-0.4419 -1.81022,0 z m 144.68923,0 2.49447,0 0,0.78403 -0.89804,0 0,-0.54167 -1.59643,0 z m 3.39246,0 6.54267,0 0,6.45718 -0.78398,0 0,-5.67315 -5.75869,0 z m -157.9742,0.91228 5.54491,0 0,2.12391 -3.50653,0 0,3.50652 -2.03838,0 z m 6.47142,0 0.86951,0 0,2.18092 2.58001,0 0,-1.85304 0.8838,0 0,3.39247 c 69.52565,0.11576 72.62965,-0.0998 141.98088,-0.0998 l 0,-3.39251 0.86955,0 0,1.86732 2.523,0 0,-2.09539 0.86952,0 0,2.93637 3.53504,0 0,3.53505 3.03615,0 0,0.86951 -2.19516,0 0,2.58005 1.86732,0 0,0.86951 -3.39251,0 0,19.41035 3.39251,0 0,0.86951 -1.86732,0 0,2.58001 2.19516,0 0,0.86951 -3.03615,0 0,3.5351 -3.53504,0 0,2.93637 -0.86952,0 0,-2.09539 -2.523,0 0,1.86732 -0.86955,0 0,-3.39251 c -69.5623,-0.28821 -72.41758,-0.10576 -141.98088,-0.1 l 0,3.39251 -0.8838,0 0,-1.85303 -2.58001,0 0,2.18092 -0.86951,0 0,-3.02191 -3.535,0 0,-3.54933 -2.93642,0 0,-0.86951 2.09539,0 0,-2.50877 -1.85308,0 0,-0.86946 3.37832,0 0,-19.35339 -3.37832,0 0,-0.86951 1.85308,0 0,-2.50872 -2.09539,0 0,-0.86951 2.93642,0 0,-3.54933 3.535,0 z m 5.23131,0 140.15642,0 0,2.72259 c -68.79542,0.16843 -71.21797,0.0855 -140.15642,0.0855 z m 146.27147,0 5.64468,0 0,5.5449 -2.13811,0 0,-3.50652 -3.50657,0 z m -157.83162,0.11405 0,1.8958 1.8958,0 0,-1.8958 z m 161.46644,0.0286 0,1.8958 1.88161,0 0,-1.8958 z m -161.33819,0.0855 1.58225,0 0,1.59644 -1.58225,0 z m 154.31091,0 0.6984,0 0,0.96928 -0.6984,0 z m 7.19835,0.0429 1.59648,0 0,1.58219 -1.59648,0 z m -153.52688,0.057 0.74121,0 0,0.95504 -0.74121,0 z m 155.47968,6.11506 0.78398,0 0,2.55152 -0.32784,0 0,-1.62501 -0.21378,-0.0286 -0.0855,0 -0.15682,0.0286 z m 0.89808,0 0.39909,0 0,2.55152 -0.39909,0 z m -166.09916,0.0855 0.44186,0 0,2.49452 -0.44186,0 z m 0.57015,0 0.76974,0 0,0.91228 -0.54162,0 0,1.58224 -0.22812,0 z m 163.2198,1.7105 0.96928,0 0,0.75549 -0.96928,0 z m -162.07945,0.0998 0.95504,0 0,0.68421 -0.95504,0 z m 163.94672,1.55372 0.32784,0 0,12.35841 0,4.02853 0,0.0998 0,3.83437 0,0.0998 0,1.3827 0,-0.59722 -0.32784,0 0,-1.79603 -0.45614,0 0,2.39325 0,-1.3827 0,-0.0998 0,-3.83437 0,-0.0998 0,-4.02853 0,-10.56238 0.45614,0 z m -165.08707,0.057 0.22812,0 0,1.78178 0.18526,0.0286 0.15682,0 0.19954,-0.0286 0,17.5288 -0.19954,-0.0286 -0.15682,0 -0.18526,0.0286 0,1.78178 -0.22812,0 z m 161.6946,1.73902 2.82232,0 0,18.62487 0,-1.01055 -2.82232,0 z m -160.79656,0.0712 2.72259,0 0,17.47184 -2.72259,0 z m -1.46819,20.20862 0.44186,0 0,2.49452 -0.44186,0 z m 0.57015,0 0.22812,0 0,1.58224 0.54162,0 0,0.91228 -0.76974,0 z m 1.14035,0 0.95504,0 0,0.68421 -0.95504,0 z m 162.07945,0.0286 0.96928,0 0,0.75545 -0.96928,0 z m 1.86727,0 0.32784,0 0,2.55148 -0.78398,0 0,-0.92651 0.15682,0.0286 0.0855,0 0.21378,-0.0286 z m 0.44194,0 0.39909,0 0,2.55148 -0.39909,0 z m -165.52901,3.36394 0.76974,0 0,5.75878 5.67321,0 0,0.78394 -6.44295,0 z m 0.89804,0 2.03838,0 0,3.50657 3.50653,0 0,2.12391 -5.54491,0 z m 161.48077,0.0855 2.13811,0 0,5.54495 -5.64468,0 0,-2.03838 3.50657,0 z m 2.25212,0 0.78398,0 0,6.45719 -6.54267,0 0,-0.78394 5.75869,0 z m -152.03016,2.73683 c 68.95483,0.20503 71.20229,-0.32051 140.15642,0.0855 l 0,2.72259 -140.15642,0 z m 149.90629,0.76974 0,1.8958 1.88161,0 0,-1.8958 z m -161.46644,0.0286 0,1.89585 1.8958,0 0,-1.89585 z m 161.63751,0.15683 1.59648,0 0,1.5822 -1.59648,0 z m -161.50926,0.0286 1.58225,0 0,1.59653 -1.58225,0 z m 7.98238,0.54172 0.74121,0 0,0.95499 -0.74121,0 z m 146.32853,0.0855 0.6984,0 0,0.96933 -0.6984,0 z m -148.13884,1.32565 0.89845,0.0415 0.0424,0.40051 1.61067,0 0,0.34208 -2.55152,0 z m 5.25983,0 140.1849,0 -0.0286,0.21378 0,0.14259 0.0286,0.18525 1.76754,0 0,0.24236 -143.76266,0 0,-0.34208 1.81022,0 z m 144.47544,0 0.89804,0 0,0.78398 -2.49447,0 0,-0.24236 1.59643,0 z m -149.73527,0.89804 2.55152,0 0,0.38484 -2.55152,0 z m 148.13884,0 2.49447,0 0,0.45609 -2.49447,0 z"
       inkscape:connector-curvature="0"
       sodipodi:nodetypes="cccccccccccccccccccccccccccccccccccccccccccccccccccccccccccccccccccccccccccccccccccccccccccccccccccccccccccccccccccccccccccccccccccccccccccccccccccccccccccccccccccccccccccccccccccccccccccccccccccccccccccccccccccccccccccccccccccccccccccccccccccccccccccccccccccccccccccccccccccccccccccccccccccccccccccccccccccccccccccccccccccccccccccccccccccccccccccccccccccccccccccccccccccccccccccccccccccccccccccccccccccccccccccccccccccccc"
       inkscape:export-filename="C:\Users\seldon\Pictures\ConceptArt\buttonBorder.png"
       inkscape:export-xdpi="180"
       inkscape:export-ydpi="180" />
    <path
       style="font-style:normal;font-variant:normal;font-weight:normal;font-stretch:normal;font-size:65.77478027px;line-height:125%;font-family:'Border Corners';-inkscape-font-specification:'Border Corners';letter-spacing:0px;word-spacing:0px;fill:none;stroke:#ff9d0e;stroke-width:0.11365167;stroke-opacity:1"
       id="path12077-3-9"
       d="m 280.11681,482.16497 0,1.3461 -143.75645,-0.0223 0,-1.27523 -4.34441,0 0,1.30358 -6.56641,0 0,6.58867 -1.33886,0 0,4.29326 1.33886,0 0,20.96655 -1.33886,0 0,4.29327 1.33886,0 0,6.58871 6.56641,0 0,1.30358 4.34441,0 0,-1.27523 143.75645,0.0223 0,1.34605 4.31585,0 0,-1.34605 6.62333,0 0,-6.53204 1.32472,0 0,-4.32157 -1.29617,0 0,-4.79069 0,-16.28925 1.29617,0 0,-4.32162 -1.32472,0 0,-6.53199 -6.62333,0 0,-1.3461 z m 0.92588,0.89268 2.49265,0 0,0.45342 -2.49265,0 z m -148.12941,0.0486 2.54965,0 0,0.38256 -2.54965,0 z m -7.33554,0.49589 6.43821,0 0,0.77935 -5.66903,0 0,5.72434 -0.76918,0 z m 7.33554,0 2.54965,0 0,0.34008 -1.60949,0 -0.0423,0.19836 0,0.0992 0.0423,0.14174 -0.94016,0 z m 3.44708,0 143.75645,0.0223 0,0.24091 -1.76625,0 -0.0286,0.18419 0,0.14169 0.0286,0.21256 -140.18131,-0.0223 0,-0.43927 -1.80889,0 z m 144.68233,0.0223 2.49265,0 0,0.77935 -0.89738,0 0,-0.53844 -1.59527,0 z m 3.38997,0 6.53786,0 0,6.41866 -0.7834,0 0,-5.63931 -5.75446,0 z m -157.95754,0.88451 5.54083,0 0,2.11125 -3.50395,0 0,3.48561 -2.03688,0 z m 6.46667,0 0.86887,0 0,2.16791 2.57811,0 0,-1.84198 0.88315,0 0,3.37223 c 69.47455,0.11507 72.67571,-0.0769 141.97597,-0.0769 l 0,-3.37227 0.86892,0 0,1.85618 2.52115,0 0,-2.08289 0.86887,0 0,2.91886 3.53245,0 0,3.51396 3.03391,0 0,0.86433 -2.19354,0 0,2.56466 1.86595,0 0,0.86432 -3.39002,0 0,19.29457 3.39002,0 0,0.86433 -1.86595,0 0,2.56461 2.19354,0 0,0.86433 -3.03391,0 0,3.51401 -3.53245,0 0,2.91885 -0.86887,0 0,-2.08289 -2.52115,0 0,1.85619 -0.86892,0 0,-3.37228 c -69.51117,-0.28649 -72.4638,-0.12745 -141.97597,-0.12172 l 0,3.37227 -0.88315,0 0,-1.84198 -2.57811,0 0,2.16791 -0.86887,0 0,-3.00388 -3.53241,0 0,-3.52816 -2.93426,0 0,-0.86432 2.09385,0 0,-2.4938 -1.85172,0 0,-0.86428 3.37584,0 0,-19.23795 -3.37584,0 0,-0.86432 1.85172,0 0,-2.49375 -2.09385,0 0,-0.86433 2.93426,0 0,-3.52816 3.53241,0 z m 5.22746,0 140.15285,0.0223 0,2.70635 c -68.74485,0.16744 -71.26507,0.0627 -140.15285,0.0627 z m 146.26341,0.0223 5.64053,0 0,5.51183 -2.13653,0 0,-3.48561 -3.504,0 z m -157.81506,0.0911 0,1.88449 1.8944,0 0,-1.88449 z m 161.44721,0.0507 0,1.88449 1.88022,0 0,-1.88449 z m -161.31905,0.0627 1.58108,0 0,1.58691 -1.58108,0 z m 154.29693,0.0223 0.69789,0 0,0.9635 -0.69789,0 z m 7.19306,0.0426 1.59531,0 0,1.57276 -1.59531,0 z m -153.51349,0.0344 0.74067,0 0,0.94934 -0.74067,0 z m 155.46486,6.1009 0.7834,0 0,2.5363 -0.3276,0 0,-1.61532 -0.21362,-0.0284 -0.0855,0 -0.15671,0.0284 z m 0.89742,0 0.3988,0 0,2.5363 -0.3988,0 z m -166.07653,0.0627 0.44153,0 0,2.47964 -0.44153,0 z m 0.56973,0 0.76918,0 0,0.90683 -0.54123,0 0,1.57281 -0.22795,0 z m 163.19928,1.72261 0.96858,0 0,0.75099 -0.96858,0 z m -162.05977,0.0769 0.95434,0 0,0.68013 -0.95434,0 z m 163.92567,1.56677 0.3276,0 0,12.28469 0,4.00451 0,0.0992 0,3.81149 0,0.0992 0,1.37445 0,-0.59365 -0.3276,0 0,-1.78532 -0.4558,0 0,2.37897 0,-1.37445 0,-0.0992 0,-3.81149 0,-0.0992 0,-4.0045 0,-10.49938 0.4558,0 z m -165.06518,0.0344 0.22795,0 0,1.77116 0.18512,0.0284 0.15671,0 0.1994,-0.0284 0,17.42424 -0.1994,-0.0284 -0.15671,0 -0.18512,0.0284 0,1.77115 -0.22795,0 z m 161.67521,1.75097 2.82024,0 0,18.51377 0,-1.00452 -2.82024,0 z m -160.77783,0.0485 2.72059,0 0,17.36761 -2.72059,0 z m -1.46711,20.08807 0.44153,0 0,2.47964 -0.44153,0 z m 0.56973,0 0.22795,0 0,1.57281 0.54123,0 0,0.90683 -0.76918,0 z m 1.13951,0 0.95434,0 0,0.68013 -0.95434,0 z m 162.05977,0.0507 0.96858,0 0,0.75095 -0.96858,0 z m 1.8659,0 0.3276,0 0,2.53626 -0.7834,0 0,-0.92099 0.15671,0.0284 0.0855,0 0.21362,-0.0284 z m 0.44162,0 0.3988,0 0,2.53626 -0.3988,0 z m -165.5068,3.32155 0.76918,0 0,5.72443 5.66903,0 0,0.77926 -6.43821,0 z m 0.89738,0 2.03688,0 0,3.48565 3.50395,0 0,2.11125 -5.54083,0 z m 161.46154,0.10732 2.13653,0 0,5.51188 -5.64053,0 0,-2.02622 3.504,0 z m 2.25046,0 0.7834,0 0,6.41867 -6.53786,0 0,-0.77925 5.75446,0 z m -152.01787,2.69819 c 68.90415,0.2038 71.2494,-0.29628 140.15285,0.10732 l 0,2.70635 -140.15285,-0.0223 z m 149.89556,0.78746 0,1.88449 1.88022,0 0,-1.88449 z m -161.44721,0.006 0,1.88454 1.8944,0 0,-1.88454 z m 161.61815,0.17821 1.59531,0 0,1.57276 -1.59531,0 z m -161.48999,0.006 1.58108,0 0,1.58701 -1.58108,0 z m 7.9765,0.53848 0.74067,0 0,0.9493 -0.74067,0 z m 146.32043,0.10732 0.69789,0 0,0.96355 -0.69789,0 z m -148.12941,1.29542 0.89779,0.0412 0.0423,0.39812 1.6095,0 0,0.34004 -2.54966,0 z m 5.25597,0 140.18131,0.0223 -0.0286,0.21251 0,0.14173 0.0286,0.18416 1.76625,0 0,0.2409 -143.75645,-0.0223 0,-0.34004 1.80889,0 z m 144.46871,0.0223 0.89738,0 0,0.7793 -2.49265,0 0,-0.2409 1.59527,0 z m -149.72468,0.87036 2.54965,0 0,0.38255 -2.54965,0 z m 148.12941,0.0223 2.49265,0 0,0.45337 -2.49265,0 z"
       inkscape:connector-curvature="0"
       sodipodi:nodetypes="cccccccccccccccccccccccccccccccccccccccccccccccccccccccccccccccccccccccccccccccccccccccccccccccccccccccccccccccccccccccccccccccccccccccccccccccccccccccccccccccccccccccccccccccccccccccccccccccccccccccccccccccccccccccccccccccccccccccccccccccccccccccccccccccccccccccccccccccccccccccccccccccccccccccccccccccccccccccccccccccccccccccccccccccccccccccccccccccccccccccccccccccccccccccccccccccccccccccccccccccccccccccccccccccccccccc"
       inkscape:export-filename="C:\Users\seldon\Pictures\ConceptArt\buttonBorder.png"
       inkscape:export-xdpi="180"
       inkscape:export-ydpi="180" />
  </g>
</svg>
